{
    "asset" : {
        "generator" : "Khronos glTF Blender I/O v3.2.43",
        "version" : "2.0"
    },
    "scene" : 0,
    "scenes" : [
        {
            "name" : "Scene",
            "nodes" : [
                0,
                1,
                2,
                3
            ]
        }
    ],
    "nodes" : [
        {
            "mesh" : 0,
            "name" : "Plane.003",
            "rotation" : [
                0.5996137857437134,
                0.3747844099998474,
                0.3747844398021698,
                0.5996137261390686
            ],
            "scale" : [
                0.2104969322681427,
                0.4060792028903961,
                0.40607917308807373
            ]
        },
        {
            "mesh" : 1,
            "name" : "Cube",
            "scale" : [
                1,
                0.5792422294616699,
                1
            ],
            "translation" : [
                -0.09464871883392334,
                1.115409016609192,
                -0.0002896523801609874
            ]
        },
        {
            "mesh" : 2,
            "name" : "Plane.002",
            "rotation" : [
                0.6283490657806396,
                -0.324310839176178,
                -0.32431092858314514,
                0.6283489465713501
            ],
            "scale" : [
                0.18297657370567322,
                0.35298842191696167,
                0.35298842191696167
            ]
        },
        {
            "mesh" : 3,
            "name" : "uploads_files_635005_Flower01",
            "rotation" : [
                -0.698589026927948,
                0.7120321989059448,
                -0.060562461614608765,
                0.036273516714572906
            ],
            "scale" : [
                0.30899930000305176,
                0.30899932980537415,
                0.30899930000305176
            ]
        }
    ],
    "materials" : [
        {
            "doubleSided" : true,
            "name" : "Material.014",
            "pbrMetallicRoughness" : {
                "baseColorFactor" : [
                    0.025350181385874748,
                    0.008416255936026573,
                    0,
                    1
                ],
                "metallicFactor" : 0,
                "roughnessFactor" : 0.5
            }
        },
        {
            "doubleSided" : true,
            "name" : "Material.001",
            "pbrMetallicRoughness" : {
                "baseColorFactor" : [
                    0.3793535530567169,
                    0.8000000715255737,
                    0,
                    1
                ],
                "metallicFactor" : 0,
                "roughnessFactor" : 0.5
            }
        },
        {
            "doubleSided" : true,
            "name" : "Material.002",
            "pbrMetallicRoughness" : {
                "baseColorFactor" : [
                    0.13917988538742065,
                    0.017949601635336876,
                    0.0010394827695563436,
                    1
                ],
                "metallicFactor" : 0,
                "roughnessFactor" : 0.5
            }
        },
        {
            "doubleSided" : true,
            "name" : "Material.010",
            "pbrMetallicRoughness" : {
                "baseColorFactor" : [
                    0.10135311633348465,
                    0.29815733432769775,
                    0,
                    1
                ],
                "metallicFactor" : 0,
                "roughnessFactor" : 0.5
            }
        },
        {
            "doubleSided" : true,
            "name" : "Material.018",
            "pbrMetallicRoughness" : {
                "baseColorFactor" : [
                    0.02661099284887314,
                    0.13600024580955505,
                    0,
                    1
                ],
                "metallicFactor" : 0,
                "roughnessFactor" : 0.5
            }
        },
        {
            "doubleSided" : true,
            "name" : "Material.015",
            "pbrMetallicRoughness" : {
                "baseColorFactor" : [
                    0.8000000715255737,
                    0.2897435426712036,
                    0,
                    1
                ],
                "metallicFactor" : 0,
                "roughnessFactor" : 0.5
            }
        },
        {
            "doubleSided" : true,
            "name" : "Material.016",
            "pbrMetallicRoughness" : {
                "baseColorFactor" : [
                    0.7251842617988586,
                    0.8000000715255737,
                    0,
                    1
                ],
                "metallicFactor" : 0,
                "roughnessFactor" : 0.5
            }
        },
        {
            "doubleSided" : true,
            "name" : "Material.017",
            "pbrMetallicRoughness" : {
                "baseColorFactor" : [
                    0.8000000715255737,
                    0,
                    0.19804880023002625,
                    1
                ],
                "metallicFactor" : 0,
                "roughnessFactor" : 0.5
            }
        }
    ],
    "meshes" : [
        {
            "name" : "Plane.003",
            "primitives" : [
                {
                    "attributes" : {
                        "POSITION" : 0,
                        "NORMAL" : 1,
                        "TEXCOORD_0" : 2
                    },
                    "indices" : 3,
                    "material" : 0
                },
                {
                    "attributes" : {
                        "POSITION" : 4,
                        "NORMAL" : 5,
                        "TEXCOORD_0" : 6
                    },
                    "indices" : 7,
                    "material" : 1
                },
                {
                    "attributes" : {
                        "POSITION" : 8,
                        "NORMAL" : 9,
                        "TEXCOORD_0" : 10
                    },
                    "indices" : 11,
                    "material" : 2
                }
            ]
        },
        {
            "name" : "Mesh",
            "primitives" : [
                {
                    "attributes" : {
                        "POSITION" : 12,
                        "NORMAL" : 13
                    },
                    "indices" : 14,
                    "material" : 3
                }
            ]
        },
        {
            "name" : "Plane.002",
            "primitives" : [
                {
                    "attributes" : {
                        "POSITION" : 15,
                        "NORMAL" : 16,
                        "TEXCOORD_0" : 17
                    },
                    "indices" : 18,
                    "material" : 4
                }
            ]
        },
        {
            "name" : "uploads_files_635005_Flower01",
            "primitives" : [
                {
                    "attributes" : {
                        "POSITION" : 19,
                        "NORMAL" : 20
                    },
                    "indices" : 21,
                    "material" : 5
                },
                {
                    "attributes" : {
                        "POSITION" : 22,
                        "NORMAL" : 23
                    },
                    "indices" : 24,
                    "material" : 6
                },
                {
                    "attributes" : {
                        "POSITION" : 25,
                        "NORMAL" : 26
                    },
                    "indices" : 27,
                    "material" : 7
                }
            ]
        }
    ],
    "accessors" : [
        {
            "bufferView" : 0,
            "componentType" : 5126,
            "count" : 18,
            "max" : [
                2.050875663757324,
                -0.023065216839313507,
                0.03537805750966072
            ],
            "min" : [
                0.20795123279094696,
                -0.10721836984157562,
                -1.8901034593582153
            ],
            "type" : "VEC3"
        },
        {
            "bufferView" : 1,
            "componentType" : 5126,
            "count" : 18,
            "type" : "VEC3"
        },
        {
            "bufferView" : 2,
            "componentType" : 5126,
            "count" : 18,
            "type" : "VEC2"
        },
        {
            "bufferView" : 3,
            "componentType" : 5123,
            "count" : 48,
            "type" : "SCALAR"
        },
        {
            "bufferView" : 4,
            "componentType" : 5126,
            "count" : 797,
            "max" : [
                1.5361530780792236,
                0.6975283026695251,
                0.6913099884986877
            ],
            "min" : [
                -1.8933266401290894,
                -0.6765287518501282,
                -0.602104902267456
            ],
            "type" : "VEC3"
        },
        {
            "bufferView" : 5,
            "componentType" : 5126,
            "count" : 797,
            "type" : "VEC3"
        },
        {
            "bufferView" : 6,
            "componentType" : 5126,
            "count" : 797,
            "type" : "VEC2"
        },
        {
            "bufferView" : 7,
            "componentType" : 5123,
            "count" : 3780,
            "type" : "SCALAR"
        },
        {
            "bufferView" : 8,
            "componentType" : 5126,
            "count" : 115,
            "max" : [
                1.9239140748977661,
                -0.0009134118445217609,
                0.0759865865111351
            ],
            "min" : [
                1.5211106538772583,
                -0.11733046174049377,
                -0.034687917679548264
            ],
            "type" : "VEC3"
        },
        {
            "bufferView" : 9,
            "componentType" : 5126,
            "count" : 115,
            "type" : "VEC3"
        },
        {
            "bufferView" : 10,
            "componentType" : 5126,
            "count" : 115,
            "type" : "VEC2"
        },
        {
            "bufferView" : 11,
            "componentType" : 5123,
            "count" : 252,
            "type" : "SCALAR"
        },
        {
            "bufferView" : 12,
            "componentType" : 5126,
            "count" : 26534,
            "max" : [
                2.0134849548339844,
                4.4853644371032715,
                0.07087964564561844
            ],
            "min" : [
                -1.630051851272583,
                -2.313749313354492,
                -0.17936117947101593
            ],
            "type" : "VEC3"
        },
        {
            "bufferView" : 13,
            "componentType" : 5126,
            "count" : 26534,
            "type" : "VEC3"
        },
        {
            "bufferView" : 14,
            "componentType" : 5123,
            "count" : 39804,
            "type" : "SCALAR"
        },
        {
            "bufferView" : 15,
            "componentType" : 5126,
            "count" : 54,
            "max" : [
                2.3749351501464844,
                0.08207470923662186,
                1.108542561531067
            ],
            "min" : [
                -3.3993327617645264,
                -0.09321948885917664,
                -1.4450292587280273
            ],
            "type" : "VEC3"
        },
        {
            "bufferView" : 16,
            "componentType" : 5126,
            "count" : 54,
            "type" : "VEC3"
        },
        {
            "bufferView" : 17,
            "componentType" : 5126,
            "count" : 54,
            "type" : "VEC2"
        },
        {
            "bufferView" : 18,
            "componentType" : 5123,
            "count" : 144,
            "type" : "SCALAR"
        },
        {
            "bufferView" : 19,
            "componentType" : 5126,
            "count" : 30720,
            "max" : [
                0.6831929683685303,
                0.5774650573730469,
                0.033029209822416306
            ],
            "min" : [
                -0.68804931640625,
                -0.725318193435669,
                -0.10096866637468338
            ],
            "type" : "VEC3"
        },
        {
            "bufferView" : 20,
            "componentType" : 5126,
            "count" : 30720,
            "type" : "VEC3"
        },
        {
            "bufferView" : 21,
            "componentType" : 5123,
            "count" : 46080,
            "type" : "SCALAR"
        },
        {
            "bufferView" : 22,
            "componentType" : 5126,
            "count" : 5923,
            "max" : [
                0.2095041424036026,
                0.198960542678833,
                -0.04442071169614792
            ],
            "min" : [
                -0.22186774015426636,
                -0.2324114441871643,
                -0.20210029184818268
            ],
            "type" : "VEC3"
        },
        {
            "bufferView" : 23,
            "componentType" : 5126,
            "count" : 5923,
            "type" : "VEC3"
        },
        {
            "bufferView" : 24,
            "componentType" : 5123,
            "count" : 9216,
            "type" : "SCALAR"
        },
        {
            "bufferView" : 25,
            "componentType" : 5126,
            "count" : 30720,
            "max" : [
                1.2591279745101929,
                1.138622522354126,
                0.22038309276103973
            ],
            "min" : [
                -1.2652143239974976,
                -1.3086127042770386,
                -0.049911126494407654
            ],
            "type" : "VEC3"
        },
        {
            "bufferView" : 26,
            "componentType" : 5126,
            "count" : 30720,
            "type" : "VEC3"
        },
        {
            "bufferView" : 27,
            "componentType" : 5123,
            "count" : 46080,
            "type" : "SCALAR"
        }
    ],
    "bufferViews" : [
        {
            "buffer" : 0,
            "byteLength" : 216,
            "byteOffset" : 0
        },
        {
            "buffer" : 0,
            "byteLength" : 216,
            "byteOffset" : 216
        },
        {
            "buffer" : 0,
            "byteLength" : 144,
            "byteOffset" : 432
        },
        {
            "buffer" : 0,
            "byteLength" : 96,
            "byteOffset" : 576
        },
        {
            "buffer" : 0,
            "byteLength" : 9564,
            "byteOffset" : 672
        },
        {
            "buffer" : 0,
            "byteLength" : 9564,
            "byteOffset" : 10236
        },
        {
            "buffer" : 0,
            "byteLength" : 6376,
            "byteOffset" : 19800
        },
        {
            "buffer" : 0,
            "byteLength" : 7560,
            "byteOffset" : 26176
        },
        {
            "buffer" : 0,
            "byteLength" : 1380,
            "byteOffset" : 33736
        },
        {
            "buffer" : 0,
            "byteLength" : 1380,
            "byteOffset" : 35116
        },
        {
            "buffer" : 0,
            "byteLength" : 920,
            "byteOffset" : 36496
        },
        {
            "buffer" : 0,
            "byteLength" : 504,
            "byteOffset" : 37416
        },
        {
            "buffer" : 0,
            "byteLength" : 318408,
            "byteOffset" : 37920
        },
        {
            "buffer" : 0,
            "byteLength" : 318408,
            "byteOffset" : 356328
        },
        {
            "buffer" : 0,
            "byteLength" : 79608,
            "byteOffset" : 674736
        },
        {
            "buffer" : 0,
            "byteLength" : 648,
            "byteOffset" : 754344
        },
        {
            "buffer" : 0,
            "byteLength" : 648,
            "byteOffset" : 754992
        },
        {
            "buffer" : 0,
            "byteLength" : 432,
            "byteOffset" : 755640
        },
        {
            "buffer" : 0,
            "byteLength" : 288,
            "byteOffset" : 756072
        },
        {
            "buffer" : 0,
            "byteLength" : 368640,
            "byteOffset" : 756360
        },
        {
            "buffer" : 0,
            "byteLength" : 368640,
            "byteOffset" : 1125000
        },
        {
            "buffer" : 0,
            "byteLength" : 92160,
            "byteOffset" : 1493640
        },
        {
            "buffer" : 0,
            "byteLength" : 71076,
            "byteOffset" : 1585800
        },
        {
            "buffer" : 0,
            "byteLength" : 71076,
            "byteOffset" : 1656876
        },
        {
            "buffer" : 0,
            "byteLength" : 18432,
            "byteOffset" : 1727952
        },
        {
            "buffer" : 0,
            "byteLength" : 368640,
            "byteOffset" : 1746384
        },
        {
            "buffer" : 0,
            "byteLength" : 368640,
            "byteOffset" : 2115024
        },
        {
            "buffer" : 0,
            "byteLength" : 92160,
            "byteOffset" : 2483664
        }
    ],
    "buffers" : [
        {
            "byteLength" : 2575824,
            "uri" : "data:application/octet-stream;base64,"
        }
    ]
}
